<svg width="400" height="150" viewBox="0 0 400 150" xmlns="http://www.w3.org/2000/svg">
  <defs>
    <filter id="shadow" x="-50%" y="-50%" width="200%" height="200%">
      <feDropShadow dx="0" dy="0" stdDeviation="3" flood-color="rgba(0,0,0,0.3)"/>
    </filter>
  </defs>

  <rect x="0" y="0" width="400" height="150" fill="#222222" />
  <rect x="0" y="0" width="400" height="150" fill="url(#backgroundGradient)" opacity="0.1"/>
  <defs>
    <linearGradient id="backgroundGradient" x1="0%" y1="0%" x2="100%" y2="0%">
      <stop offset="0%" stop-color="#444444" stop-opacity="0.5"/>
      <stop offset="100%" stop-color="#222222" stop-opacity="0.5"/>
    </linearGradient>
  </defs>

  <g transform="translate(40, 35)">
    <circle cx="35" cy="35" r="30" stroke="#777777" stroke-width="4" fill="none" />
    <path d="M50 35 C50 20 35 15 30 15 C25 15 10 20 10 35 C10 50 25 55 30 55 C35 55 50 50 50 35 Z M30 25 L30 45 M20 35 L40 35" fill="none" stroke="#777777" stroke-width="4" stroke-linecap="round" stroke-linejoin="round"/>
    <path d="M60 35 A25 25 0 1 1 35 10 V20 A15 15 0 1 0 35 50 H55" fill="none" stroke="#777777" stroke-width="4" stroke-linecap="round"/>
    
    <path d="M35 25 C37 20 45 20 45 30 C45 35 37 40 35 45 C33 40 25 35 25 30 C25 20 33 20 35 25 Z" fill="#E63946" />
  </g>

  <text x="120" y="70" font-family="Arial, sans-serif" font-size="60" font-weight="bold" fill="#FFFFFF" filter="url(#shadow)">GRILL</text>

  <text x="120" y="110" font-family="Arial, sans-serif" font-size="35" font-weight="normal" fill="#E63946" filter="url(#shadow)">PSYCH</text>
</svg>